<svg width="172" height="24" viewBox="0 0 172 24" fill="none" xmlns="http://www.w3.org/2000/svg">
<path d="M11.944 0.431998C12.896 0.431998 14.0067 0.571999 15.276 0.852C16.564 1.132 17.4973 1.43067 18.076 1.748V7.068H17.32C15.5653 4.1 13.232 2.616 10.32 2.616C9.032 2.616 7.86533 2.98933 6.82 3.736C5.77467 4.464 4.95333 5.48133 4.356 6.788C3.75867 8.076 3.46 9.532 3.46 11.156C3.46 13.0227 3.74933 14.74 4.328 16.308C4.90667 17.8573 5.79333 19.0987 6.988 20.032C8.20133 20.9653 9.69467 21.432 11.468 21.432C13.0173 21.432 15.2667 20.1813 18.216 17.68L19 18.94L13.848 22.944C13.176 23.1867 12.5227 23.3453 11.888 23.42C11.272 23.5133 10.6093 23.56 9.9 23.56C7.97733 23.56 6.26933 23.084 4.776 22.132C3.28267 21.18 2.116 19.8733 1.276 18.212C0.454667 16.532 0.0440002 14.628 0.0440002 12.5C0.0440002 10.316 0.669333 8.3 1.92 6.452C3.17067 4.58533 4.72933 3.12 6.596 2.056C8.46267 0.973332 10.2453 0.431998 11.944 0.431998ZM42.7827 23.084H37.7427L31.4147 13.088L30.0987 12.108L30.4627 11.38H32.0867C33.4121 11.38 34.4574 11.0627 35.2227 10.428C35.9881 9.77467 36.3707 8.87867 36.3707 7.74C36.3707 6.228 35.9507 4.968 35.1107 3.96C34.2707 2.952 33.0387 2.448 31.4147 2.448C30.3321 2.448 29.3427 2.76533 28.4467 3.4V21.04L31.3587 22.076L30.8827 23.056H22.6507V22.328L25.2827 20.284V3.008L22.3987 2L22.8747 1.02H25.8427C27.5414 1.02 29.2307 0.963999 30.9107 0.852C32.1054 0.777333 33.0014 0.74 33.5987 0.74C34.8121 0.74 35.8947 0.992 36.8467 1.496C37.7987 2 38.5361 2.68133 39.0587 3.54C39.5814 4.38 39.8427 5.31333 39.8427 6.34C39.8427 7.27333 39.5441 8.16933 38.9467 9.028C38.3494 9.88667 37.5747 10.6333 36.6227 11.268C35.6894 11.884 34.7001 12.3507 33.6547 12.668L35.4187 13.284L39.8987 20.368L43.2587 22.104L42.7827 23.084ZM61.7046 23H45.0726V22.272L47.7046 20.2V2.98L44.8206 1.972L45.2966 0.992H61.4246L62.8246 0.487999V6.788L62.1246 6.984L58.8206 2.084H50.8686V11.212H55.4886L57.5326 7.544H58.2606V16.112L57.2806 16.616L55.5446 12.304H50.8686V21.908H58.7086L62.4046 16.42L63.1046 16.644V23.504L61.7046 23ZM89.6619 23H81.5419V22.272L84.0619 20.2L81.8219 14.796H72.3019L69.8379 20.424L74.8779 22.02L74.4019 23H66.0019V22.272L68.5499 20.256L76.6139 1.888L79.1339 0.459998L87.3659 20.256L90.1659 22.02L89.6619 23ZM77.2019 3.624L72.7779 13.704H81.3739L77.2019 3.624ZM108.773 7.348L108.073 7.544L104.377 2.084H100.793V20.984L103.705 22.02L103.201 23H94.9688V22.272L97.6008 20.2V2.084H94.1288L90.4328 7.544L89.7328 7.348V0.487999L91.1328 0.992H107.373L108.773 0.487999V7.348ZM120.871 23.056H112.639V22.328L115.271 20.284V3.036L112.387 2L112.863 1.02H121.095V1.748L118.435 3.792V20.984L121.347 22.076L120.871 23.056ZM143.292 3.764V23H141.948L128.592 5.808V20.536L131.336 22.02L130.832 23H124.616V22.272L127.248 20.228V3.512L124.364 1.972L124.84 0.992H128.928L141.948 17.764V3.456L139.232 1.972L139.736 0.992H145.952V1.72L143.292 3.764ZM168.496 18.66L169.252 19.78L164.1 22.944C163.334 23.2053 162.597 23.3733 161.888 23.448C161.178 23.5227 160.413 23.56 159.592 23.56C157.557 23.56 155.756 23.084 154.188 22.132C152.62 21.18 151.397 19.8733 150.52 18.212C149.661 16.532 149.232 14.628 149.232 12.5C149.232 10.316 149.885 8.3 151.192 6.452C152.498 4.58533 154.122 3.12 156.064 2.056C158.024 0.973332 159.881 0.431998 161.636 0.431998C162.681 0.431998 163.894 0.571999 165.276 0.852C166.676 1.132 167.693 1.43067 168.328 1.748V6.928H167.6C165.677 4.05333 163.148 2.616 160.012 2.616C158.63 2.616 157.38 2.98933 156.26 3.736C155.139 4.464 154.253 5.48133 153.6 6.788C152.965 8.076 152.648 9.532 152.648 11.156C152.648 13.004 152.956 14.7027 153.572 16.252C154.206 17.8013 155.158 19.0427 156.428 19.976C157.697 20.8907 159.274 21.348 161.16 21.348C161.253 21.348 161.542 21.3573 162.028 21.376C162.513 21.376 163.036 21.3107 163.596 21.18C164.174 21.0493 164.753 20.844 165.332 20.564V13.844L161.048 12.612L161.524 11.632H171.156V12.36L168.496 14.404V18.66Z" fill="black"/>
</svg>
