<svg width="224" height="24" viewBox="0 0 224 24" fill="none" xmlns="http://www.w3.org/2000/svg">
<path d="M11.152 12.332C12.4587 12.332 13.4947 11.9867 14.26 11.296C15.044 10.6053 15.436 9.65333 15.436 8.44C15.436 6.68533 14.988 5.248 14.092 4.128C13.196 2.98933 11.8893 2.42 10.172 2.42C8.84667 2.42 7.64267 2.80267 6.56 3.568V20.816L10.816 22.048L10.312 23.028H0.764V22.3L3.396 20.228V2.924L0.512 1.972L0.988 0.992H3.956C5.804 0.992 7.624 0.935999 9.416 0.823998C10.7227 0.749332 11.6933 0.711998 12.328 0.711998C13.616 0.711998 14.7547 0.991999 15.744 1.552C16.7333 2.09333 17.4987 2.84933 18.04 3.82C18.6 4.772 18.88 5.836 18.88 7.012C18.88 8.3 18.4133 9.52267 17.48 10.68C16.5467 11.8187 15.352 12.7147 13.896 13.368C12.4587 14.0213 11.0307 14.3107 9.612 14.236L8.268 13.256L8.772 12.276H11.18L11.152 12.332ZM34.6816 0.431998C36.623 0.431998 38.3403 0.907998 39.8336 1.86C41.3456 2.812 42.5123 4.128 43.3336 5.808C44.155 7.488 44.5656 9.392 44.5656 11.52C44.5656 13.704 43.9403 15.72 42.6896 17.568C41.439 19.416 39.8803 20.8813 38.0136 21.964C36.1656 23.028 34.3923 23.56 32.6936 23.56C30.7523 23.56 29.035 23.084 27.5416 22.132C26.0483 21.18 24.8816 19.8733 24.0416 18.212C23.2203 16.532 22.8096 14.628 22.8096 12.5C22.8096 10.316 23.435 8.3 24.6856 6.452C25.9363 4.58533 27.4856 3.12 29.3336 2.056C31.2003 0.973332 32.983 0.431998 34.6816 0.431998ZM33.0576 2.616C31.7883 2.616 30.631 2.98933 29.5856 3.736C28.5403 4.464 27.719 5.48133 27.1216 6.788C26.5243 8.076 26.2256 9.532 26.2256 11.156C26.2256 13.0227 26.515 14.7307 27.0936 16.28C27.691 17.8293 28.5963 19.0707 29.8096 20.004C31.023 20.9187 32.5256 21.376 34.3176 21.376C35.587 21.376 36.7443 21.012 37.7896 20.284C38.835 19.5373 39.6563 18.52 40.2536 17.232C40.851 15.9253 41.1496 14.46 41.1496 12.836C41.1496 10.9507 40.851 9.24267 40.2536 7.712C39.675 6.16267 38.779 4.93067 37.5656 4.016C36.3523 3.08267 34.8496 2.616 33.0576 2.616ZM68.5015 23.084H63.4615L57.1335 13.088L55.8175 12.108L56.1815 11.38H57.8055C59.1308 11.38 60.1761 11.0627 60.9415 10.428C61.7068 9.77467 62.0895 8.87867 62.0895 7.74C62.0895 6.228 61.6695 4.968 60.8295 3.96C59.9895 2.952 58.7575 2.448 57.1335 2.448C56.0508 2.448 55.0615 2.76533 54.1655 3.4V21.04L57.0775 22.076L56.6015 23.056H48.3695V22.328L51.0015 20.284V3.008L48.1175 2L48.5935 1.02H51.5615C53.2601 1.02 54.9495 0.963999 56.6295 0.852C57.8241 0.777333 58.7201 0.74 59.3175 0.74C60.5308 0.74 61.6135 0.992 62.5655 1.496C63.5175 2 64.2548 2.68133 64.7775 3.54C65.3001 4.38 65.5615 5.31333 65.5615 6.34C65.5615 7.27333 65.2628 8.16933 64.6655 9.028C64.0681 9.88667 63.2935 10.6333 62.3415 11.268C61.4081 11.884 60.4188 12.3507 59.3735 12.668L61.1375 13.284L65.6175 20.368L68.9775 22.104L68.5015 23.084ZM90.1673 7.348L89.4673 7.544L85.7713 2.084H82.1873V20.984L85.0993 22.02L84.5953 23H76.3633V22.272L78.9953 20.2V2.084H75.5233L71.8273 7.544L71.1273 7.348V0.487999L72.5273 0.992H88.7673L90.1673 0.487999V7.348ZM106.186 0.431998C108.127 0.431998 109.844 0.907998 111.338 1.86C112.85 2.812 114.016 4.128 114.838 5.808C115.659 7.488 116.07 9.392 116.07 11.52C116.07 13.704 115.444 15.72 114.194 17.568C112.943 19.416 111.384 20.8813 109.518 21.964C107.67 23.028 105.896 23.56 104.198 23.56C102.256 23.56 100.539 23.084 99.0455 22.132C97.5522 21.18 96.3855 19.8733 95.5455 18.212C94.7242 16.532 94.3135 14.628 94.3135 12.5C94.3135 10.316 94.9389 8.3 96.1895 6.452C97.4402 4.58533 98.9895 3.12 100.838 2.056C102.704 0.973332 104.487 0.431998 106.186 0.431998ZM104.562 2.616C103.292 2.616 102.135 2.98933 101.09 3.736C100.044 4.464 99.2229 5.48133 98.6255 6.788C98.0282 8.076 97.7295 9.532 97.7295 11.156C97.7295 13.0227 98.0189 14.7307 98.5975 16.28C99.1949 17.8293 100.1 19.0707 101.314 20.004C102.527 20.9187 104.03 21.376 105.822 21.376C107.091 21.376 108.248 21.012 109.294 20.284C110.339 19.5373 111.16 18.52 111.758 17.232C112.355 15.9253 112.654 14.46 112.654 12.836C112.654 10.9507 112.355 9.24267 111.758 7.712C111.179 6.16267 110.283 4.93067 109.07 4.016C107.856 3.08267 106.354 2.616 104.562 2.616ZM137.625 6.788L136.925 6.984L133.621 2.084H125.669V11.212H130.289L132.333 7.544H133.061V15.104L132.081 15.608L130.401 12.304H125.669V20.788L129.925 22.02L129.421 23H119.873V22.272L122.505 20.2V2.98L119.621 1.972L120.097 0.992H136.225L137.625 0.487999V6.788ZM153.682 0.431998C155.623 0.431998 157.34 0.907998 158.834 1.86C160.346 2.812 161.512 4.128 162.334 5.808C163.155 7.488 163.566 9.392 163.566 11.52C163.566 13.704 162.94 15.72 161.69 17.568C160.439 19.416 158.88 20.8813 157.014 21.964C155.166 23.028 153.392 23.56 151.694 23.56C149.752 23.56 148.035 23.084 146.542 22.132C145.048 21.18 143.882 19.8733 143.042 18.212C142.22 16.532 141.81 14.628 141.81 12.5C141.81 10.316 142.435 8.3 143.686 6.452C144.936 4.58533 146.486 3.12 148.334 2.056C150.2 0.973332 151.983 0.431998 153.682 0.431998ZM152.058 2.616C150.788 2.616 149.631 2.98933 148.586 3.736C147.54 4.464 146.719 5.48133 146.122 6.788C145.524 8.076 145.226 9.532 145.226 11.156C145.226 13.0227 145.515 14.7307 146.094 16.28C146.691 17.8293 147.596 19.0707 148.81 20.004C150.023 20.9187 151.526 21.376 153.318 21.376C154.587 21.376 155.744 21.012 156.79 20.284C157.835 19.5373 158.656 18.52 159.254 17.232C159.851 15.9253 160.15 14.46 160.15 12.836C160.15 10.9507 159.851 9.24267 159.254 7.712C158.675 6.16267 157.779 4.93067 156.566 4.016C155.352 3.08267 153.85 2.616 152.058 2.616ZM183.945 23H167.369V22.272L170.001 20.2V3.008L167.117 1.972L167.593 0.992H175.825V1.72L173.165 3.792V21.908H180.585L184.645 15.86L185.345 16.084V23.504L183.945 23ZM197.504 23.056H189.272V22.328L191.904 20.284V3.036L189.02 2L189.496 1.02H197.728V1.748L195.068 3.792V20.984L197.98 22.076L197.504 23.056ZM213.4 0.431998C215.342 0.431998 217.059 0.907998 218.552 1.86C220.064 2.812 221.231 4.128 222.052 5.808C222.874 7.488 223.284 9.392 223.284 11.52C223.284 13.704 222.659 15.72 221.408 17.568C220.158 19.416 218.599 20.8813 216.732 21.964C214.884 23.028 213.111 23.56 211.412 23.56C209.471 23.56 207.754 23.084 206.26 22.132C204.767 21.18 203.6 19.8733 202.76 18.212C201.939 16.532 201.528 14.628 201.528 12.5C201.528 10.316 202.154 8.3 203.404 6.452C204.655 4.58533 206.204 3.12 208.052 2.056C209.919 0.973332 211.702 0.431998 213.4 0.431998ZM211.776 2.616C210.507 2.616 209.35 2.98933 208.304 3.736C207.259 4.464 206.438 5.48133 205.84 6.788C205.243 8.076 204.944 9.532 204.944 11.156C204.944 13.0227 205.234 14.7307 205.812 16.28C206.41 17.8293 207.315 19.0707 208.528 20.004C209.742 20.9187 211.244 21.376 213.036 21.376C214.306 21.376 215.463 21.012 216.508 20.284C217.554 19.5373 218.375 18.52 218.972 17.232C219.57 15.9253 219.868 14.46 219.868 12.836C219.868 10.9507 219.57 9.24267 218.972 7.712C218.394 6.16267 217.498 4.93067 216.284 4.016C215.071 3.08267 213.568 2.616 211.776 2.616Z" fill="black"/>
</svg>
